<?xml version="1.0" encoding="UTF-8" standalone="no"?>
<!DOCTYPE svg PUBLIC "-//W3C//DTD SVG 1.1//EN" "http://www.w3.org/Graphics/SVG/1.1/DTD/svg11.dtd">
<!-- 由 Microsoft Visio, SVG Export 生成 1.svg Page-1 -->
<svg xmlns="http://www.w3.org/2000/svg" xmlns:xlink="http://www.w3.org/1999/xlink" xmlns:ev="http://www.w3.org/2001/xml-events"
		xmlns:v="http://schemas.microsoft.com/visio/2003/SVGExtensions/" width="2.77591in" height="0.874374in"
		viewBox="0 0 199.865 62.9549" xml:space="preserve" color-interpolation-filters="sRGB" class="st8">
	<v:documentProperties v:langID="2052" v:metric="true" v:viewMarkup="false">
		<v:userDefs>
			<v:ud v:nameU="msvConvertTheme"/>
		</v:userDefs>
	</v:documentProperties>

	<style type="text/css">
	<![CDATA[
		.st1 {stroke:#000000;stroke-linecap:round;stroke-linejoin:round;stroke-width:1.2}
		.st2 {stroke:#000000;stroke-linecap:round;stroke-linejoin:round;stroke-width:0.72}
		.st3 {fill:#ffffff;fill-opacity:0;stroke:#ff0000;stroke-dasharray:0.72,1.44;stroke-linecap:round;stroke-linejoin:round;stroke-width:0.72}
		.st4 {fill:none;stroke:none;stroke-linecap:round;stroke-linejoin:round;stroke-width:0.72}
		.st5 {fill:#000000;font-family:宋体;font-size:0.499992em}
		.st6 {font-family:Times New Roman;font-size:1em}
		.st7 {fill:#000000;font-family:宋体;font-size:0.416656em}
		.st8 {fill:none;fill-rule:evenodd;font-size:12px;overflow:visible;stroke-linecap:square;stroke-miterlimit:3}
	]]>
	</style>

	<g v:mID="0" v:index="1" v:groupContext="foregroundPage">
		<title>页-1</title>
		<v:pageProperties v:drawingScale="0.0393701" v:pageScale="0.0393701" v:drawingUnits="24" v:shadowOffsetX="9"
				v:shadowOffsetY="-9"/>
		<g id="group50-1" transform="translate(0.72,-0.72)" v:mID="50" v:groupContext="group">
			<title>工作表.50</title>
			<g id="shape12-2" v:mID="12" v:groupContext="shape" transform="translate(21.2598,-25.5118)">
				<title>工作表.12</title>
				<path d="M0 62.95 A103.465 2.83465 0 0 1 103.46 60.12 A53.8583 7.08661 -180 0 0 157.32 53.03" class="st1"/>
			</g>
			<g id="shape13-5" v:mID="13" v:groupContext="shape" transform="translate(89.0831,13.7919) rotate(74.7449)">
				<title>工作表.13</title>
				<path d="M0 62.95 L16.16 62.95" class="st2"/>
			</g>
			<g id="shape15-8" v:mID="15" v:groupContext="shape" transform="translate(-21.8525,44.5297) rotate(-90)">
				<title>工作表.15</title>
				<path d="M0 62.95 L14.17 62.95" class="st2"/>
			</g>
			<g id="shape26-11" v:mID="26" v:groupContext="shape" transform="translate(109.906,10.8492) rotate(73.3008)">
				<title>工作表.26</title>
				<path d="M0 62.95 L14.8 62.95" class="st2"/>
			</g>
			<g id="shape27-14" v:mID="27" v:groupContext="shape" transform="translate(128.152,28.9392) rotate(90)">
				<title>工作表.27</title>
				<path d="M0 62.95 L14.17 62.95" class="st2"/>
			</g>
			<g id="shape28-17" v:mID="28" v:groupContext="shape" transform="translate(12.9642,27.9652) rotate(-74.7449)">
				<title>工作表.28</title>
				<path d="M0 62.95 L16.16 62.95" class="st2"/>
			</g>
			<g id="shape29-20" v:mID="29" v:groupContext="shape" transform="translate(84.6142,-18.4252)">
				<title>工作表.29</title>
				<path d="M0 46.94 L1.84 48.78 L6.09 62.95" class="st2"/>
			</g>
			<g id="shape30-23" v:mID="30" v:groupContext="shape" transform="translate(157.115,10.9573) rotate(74.7449)">
				<title>工作表.30</title>
				<path d="M0 62.95 L16.16 62.95" class="st2"/>
			</g>
			<g id="shape31-26" v:mID="31" v:groupContext="shape" transform="translate(172.089,28.9392) rotate(90)">
				<title>工作表.31</title>
				<path d="M0 62.95 L12.76 62.95" class="st2"/>
			</g>
			<g id="shape32-29" v:mID="32" v:groupContext="shape" transform="translate(183.346,42.596) rotate(102.529)">
				<title>工作表.32</title>
				<path d="M0 62.95 L13.07 62.95" class="st2"/>
			</g>
			<g id="shape33-32" v:mID="33" v:groupContext="shape" transform="translate(194.766,28.9392) rotate(90)">
				<title>工作表.33</title>
				<path d="M0 62.95 L12.76 62.95" class="st2"/>
			</g>
			<g id="shape34-35" v:mID="34" v:groupContext="shape" transform="translate(198.622,9.03107) rotate(71.5651)">
				<title>工作表.34</title>
				<path d="M0 62.95 L13.45 62.95" class="st2"/>
			</g>
			<g id="shape35-38" v:mID="35" v:groupContext="shape" transform="translate(211.311,13.6703) rotate(75.9638)">
				<title>工作表.35</title>
				<path d="M0 62.95 L11.69 62.95" class="st2"/>
			</g>
			<g id="shape36-41" v:mID="36" v:groupContext="shape" transform="translate(218.464,7.61374) rotate(71.5651)">
				<title>工作表.36</title>
				<path d="M0 62.95 L13.45 62.95" class="st2"/>
			</g>
			<g id="shape37-44" v:mID="37" v:groupContext="shape" transform="translate(222.277,-5.88642) rotate(60.9454)">
				<title>工作表.37</title>
				<path d="M0 62.95 L14.59 62.95" class="st2"/>
			</g>
			<g id="shape38-47" v:mID="38" v:groupContext="shape" transform="translate(134.067,-16.994) rotate(-45)">
				<title>工作表.38</title>
				<path d="M0 62.95 L11.13 62.95" class="st1"/>
			</g>
			<g id="shape39-50" v:mID="39" v:groupContext="shape" transform="translate(233.06,-5.61571) rotate(65.556)">
				<title>工作表.39</title>
				<path d="M0 62.95 L17.13 62.95" class="st2"/>
			</g>
			<g id="shape40-53" v:mID="40" v:groupContext="shape" transform="translate(36.5286,98.5183) rotate(165.964)">
				<title>工作表.40</title>
				<path d="M0 62.95 L11.69 62.95" class="st1"/>
			</g>
			<g id="shape41-56" v:mID="41" v:groupContext="shape" transform="translate(65.9545,-8.83379) rotate(53.1301)">
				<title>工作表.41</title>
				<path d="M0 62.95 L14.17 62.95" class="st2"/>
			</g>
			<g id="shape42-59" v:mID="42" v:groupContext="shape" transform="translate(80.4031,12.1234) rotate(63.4349)">
				<title>工作表.42</title>
				<path d="M0 62.95 L6.34 62.95" class="st2"/>
			</g>
			<g id="shape43-62" v:mID="43" v:groupContext="shape" transform="translate(9.92126,-14.1732)">
				<title>工作表.43</title>
				<ellipse cx="31.1811" cy="51.6163" rx="31.1811" ry="11.3386" class="st3"/>
			</g>
			<g id="shape44-64" v:mID="44" v:groupContext="shape" transform="translate(73.9843,-17.0079)">
				<title>工作表.44</title>
				<ellipse cx="30.3307" cy="51.6163" rx="30.3307" ry="11.3386" class="st3"/>
			</g>
			<g id="shape45-66" v:mID="45" v:groupContext="shape" transform="translate(128.85,-16.5112) rotate(-9.7)">
				<title>工作表.45</title>
				<ellipse cx="27.6471" cy="51.6163" rx="27.6471" ry="11.3386" class="st3"/>
			</g>
			<g id="shape46-68" v:mID="46" v:groupContext="shape" transform="translate(69.4488,0)">
				<title>工作表.46</title>
				<desc>总计: 16 个交叉口</desc>
				<v:textBlock v:margins="rect(4,4,4,4)" v:tabSpace="42.5197"/>
				<v:textRect cx="40.8346" cy="57.8958" width="81.67" height="10.1181"/>
				<rect x="0" y="52.8368" width="81.6693" height="10.1181" class="st4"/>
				<text x="17.5" y="59.87" class="st5" v:langID="2052"><v:paragraph v:horizAlign="1"/><v:tabList/>总计<tspan
							class="st6" v:langID="1033">: 16 </tspan>个交叉口</text>			</g>
			<g id="shape47-72" v:mID="47" v:groupContext="shape" transform="translate(1.59872E-14,-38.0709)">
				<title>工作表.47</title>
				<desc>子区-1: 5 个交叉口</desc>
				<v:textBlock v:margins="rect(4,4,4,4)" v:tabSpace="42.5197"/>
				<v:textRect cx="32.5984" cy="57.8958" width="65.2" height="10.1181"/>
				<rect x="0" y="52.8368" width="65.1969" height="10.1181" class="st4"/>
				<text x="12.32" y="59.54" class="st7" v:langID="2052"><v:paragraph v:horizAlign="1"/><v:tabList/>子区<tspan
							class="st6" v:langID="1033">-</tspan><tspan class="st6" v:langID="1033">1: 5 </tspan>个交叉口</text>			</g>
			<g id="shape48-77" v:mID="48" v:groupContext="shape" transform="translate(69.4488,-38.0709)">
				<title>工作表.48</title>
				<desc>子区-2: 6 个交叉口</desc>
				<v:textBlock v:margins="rect(4,4,4,4)" v:tabSpace="42.5197"/>
				<v:textRect cx="32.5984" cy="57.8958" width="65.2" height="10.1181"/>
				<rect x="0" y="52.8368" width="65.1969" height="10.1181" class="st4"/>
				<text x="12.32" y="59.54" class="st7" v:langID="2052"><v:paragraph v:horizAlign="1"/><v:tabList/>子区<tspan
							class="st6" v:langID="1033">-</tspan><tspan class="st6" v:langID="1033">2: 6 </tspan>个交叉口</text>			</g>
			<g id="shape49-82" v:mID="49" v:groupContext="shape" transform="translate(122.847,-38.6309) rotate(-10.5)">
				<title>工作表.49</title>
				<desc>子区-3: 5 个交叉口</desc>
				<v:textBlock v:margins="rect(4,4,4,4)" v:tabSpace="42.5197"/>
				<v:textRect cx="32.5984" cy="57.8958" width="65.2" height="10.1181"/>
				<rect x="0" y="52.8368" width="65.1969" height="10.1181" class="st4"/>
				<text x="12.32" y="59.54" class="st7" v:langID="2052"><v:paragraph v:horizAlign="1"/><v:tabList/>子区<tspan
							class="st6" v:langID="1033">-</tspan><tspan class="st6" v:langID="1033">3: 5 </tspan>个交叉口</text>			</g>
		</g>
	</g>
</svg>
